<svg xmlns="http://www.w3.org/2000/svg" viewBox="0 0 1920 300"><linearGradient id="a" gradientUnits="userSpaceOnUse" x1="1.523" y1="151.941" x2="163.307" y2="151.941" gradientTransform="matrix(1 .00812 -.00812 1 .89 -4.34)"><stop offset=".408" stop-color="#132e87"/><stop offset="1" stop-color="#036eb7"/></linearGradient><path d="M1.9 289.2L0 292.6l62.7-49.7-2 1.5 2-1.5.1-27.9c0-3.3 2.6-6.4 5.8-6.5 3.3-.1 6.3 2.7 6.3 6.3l-.1 18.6h.1l25.3-20.2.1-29.3c0-3.3 2.6-6.4 5.8-6.5 3.3-.1 6.3 2.7 6.3 6.3l-.1 20.2h.1l25.3-20.7.5-52.2c.1-14.2 11.4-25.7 25.1-25.6L164.1 4s0-.1-.1 0L0 292.6l1.9-3.4z" fill="url(#a)"/><linearGradient id="b" gradientUnits="userSpaceOnUse" x1="163.123" y1="151.844" x2="324.83" y2="151.844" gradientTransform="matrix(1 .00812 -.00812 1 .89 -4.34)"><stop offset=".235" stop-color="#e95513"/><stop offset=".552" stop-color="#f0891a"/><stop offset=".695" stop-color="#ef8115"/><stop offset=".921" stop-color="#eb6a06"/><stop offset="1" stop-color="#ea6000"/></linearGradient><path d="M321.4 291.7l1.9 3.6-62.1-50.6 2 1.5-1.9-1.5.1-27.9c0-3.3-2.4-6.4-5.6-6.7-3.3-.1-6.3 2.6-6.3 6l-.1 18.6h-.1l-25.1-20.5.1-29.3c0-3.3-2.4-6.4-5.6-6.7-3.3-.1-6.3 2.6-6.3 6l-.1 20.2h-.1l-25-21.2.5-52.2c.1-14.2-10.9-26-24.6-26.1L164 3.7s0-.1.1 0l159 291.4-1.7-3.4z" fill="url(#b)"/><path d="M405.9 78.9h89c1 0 1.8.5 2.4 1.3s1 1.9 1 3.1v25.6c0 1.2-.4 2.3-1 3.1-.6.8-1.4 1.3-2.4 1.3h-27.6V186c0 1.2-.3 2.3-1 3.1s-1.4 1.3-2.4 1.3h-26.6c-1 0-1.8-.5-2.4-1.3-.6-.8-1-1.9-1-3.1v-73H406c-1 0-1.8-.5-2.4-1.3-.6-.8-1-1.9-1-3.1V83.1c0-1.2.3-2.2 1-3.1.6-.9 1.4-1.1 2.3-1.1zM611 185.1c.1.5.3 1 .3 1.8s-.3 1.4-.8 2c-.6.6-1.3 1-1.9 1h-29.4c-2.6 0-4.4-1.3-5.4-4l-11.4-31.5h-10.9v31.2c0 1.2-.3 2.3-1 3.1-.8.8-1.4 1.3-2.4 1.3h-27.9c-1 0-1.8-.5-2.4-1.3-.6-.8-1-1.9-1-3.1V83.3c0-1.2.4-2.3 1-3.1.6-.8 1.4-1.3 2.4-1.3h50c11.8 0 21.1 3.6 28 10.4 6.9 6.8 10.2 16.4 10.2 28.2 0 14.3-4.5 24.8-13.6 31.4l16.2 36.2zm-59.4-76.7v16.8h16.1c1.9 0 3.3-.8 4.4-2.3 1-1.5 1.5-3.6 1.5-5.8 0-2.4-.5-4.4-1.4-6-1-1.8-2.4-2.6-4.5-2.6h-16.1v-.1zm93.5 81.6h-24.3c-.8 0-1.4-.3-1.9-1-.5-.8-.8-1.3-.8-1.9 0-.6 0-1.2.1-1.4L646.4 84c.8-3.6 2.7-5.2 5.8-5.2H688c3.1 0 5 1.8 5.8 5.2l27.9 101.5c.1.3.1.8.1 1.4 0 .6-.3 1.3-.8 1.9-.6.6-1.3 1-1.9 1h-24.3c-2.7 0-4.6-1.8-5.8-5.4l-3.2-11.3h-31.5l-3.2 11.3c-1.4 3.9-3.3 5.6-6 5.6zm33.9-47.5l-9.1-33.1-9.1 33.1H679zm120.7-63.6h27.1c.8 0 1.4.4 1.9 1s.8 1.3.8 1.9c0 .6 0 1.2-.1 1.5l-29.6 101.4c-1 3.6-2.8 5.2-5.8 5.2h-30c-2.8 0-4.9-1.5-5.6-4.9l-30-101.9c-.1-.5-.1-1-.1-1.5 0-.6.3-1.3.8-1.9.5-.6 1.3-1 1.9-1h27.1c1.5 0 2.8.5 3.8 1.5s1.5 2.3 1.9 3.6l14.8 60.9 14.8-60.9c1.2-3.3 3-4.9 6.3-4.9zm79.1 80.1h51.3c1 0 1.8.5 2.4 1.3.6.8 1 1.9 1 3.1v22.4c0 1.2-.4 2.3-1 3.1s-1.4 1.3-2.4 1.3h-81.4c-1 0-1.8-.5-2.4-1.3s-1-1.9-1-3.1V83.2c0-1.2.4-2.3 1-3.1.6-.8 1.4-1.3 2.4-1.3h80.1c1 0 1.8.5 2.4 1.3.6.8 1 1.9 1 3.1v22.4c0 1.2-.3 2.2-1 3.1-.8.9-1.4 1.3-2.4 1.3h-50v10.1h43c.9 0 1.8.5 2.4 1.3.6.8.9 1.9.9 3.1V145c0 1.2-.3 2.3-.9 3.1-.6.8-1.4 1.3-2.4 1.3h-43v9.6zm117.2-1.7h44c.9 0 1.8.5 2.4 1.3.6.8.9 1.9.9 3.1v24.1c0 1.2-.3 2.3-.9 3.1-.6.8-1.4 1.3-2.4 1.3h-75.3c-1 0-1.8-.5-2.4-1.3s-1-1.9-1-3.1V83.2c0-1.2.3-2.3 1-3.1.8-.8 1.4-1.3 2.4-1.3h27.9c1 0 1.8.5 2.4 1.3.6.8 1 1.9 1 3.1v74.1zM1261.4 83v60c0 15.9-4.4 27.6-12.9 35.6-8.7 7.8-20 11.6-34.4 11.6-7.8 0-14.8-1.3-21.2-3.7-6.4-2.4-11.4-5.8-15.2-9.7-7.8-8.3-11.6-17.3-11.6-26.8 0-1 .3-1.8.8-2.4.5-.6 1.3-1 1.9-1h29.2c1.5 0 2.6 1.2 3.2 3.3 1.5 6.3 5.8 9.2 12.3 9.2 4 0 7.2-1.2 9.6-3.3s3.6-5.4 3.6-9.7v-34.7h-47.1c-1 0-1.8-.5-2.4-1.3-.6-.8-1-1.9-1-3.1V83c0-1.2.4-2.2 1-3.1.6-.8 1.4-1.3 2.4-1.3h78.3c1 0 1.8.5 2.4 1.3.7 1 1.1 1.9 1.1 3.1zm113.2 41.9V144c0 10.8-2 19.5-6.4 26.8-4.4 7.3-10 12.2-16.9 15.2-7 3.1-15.2 4.5-24.6 4.5-9.3 0-17.7-1.4-24.6-4.5-6.9-3.1-12.7-7.9-16.9-15.2-4.4-7.2-6.4-16.1-6.4-27v-18.2c0-15.6 4.5-27.1 13.3-35.1 9-7.7 20.5-11.6 34.6-11.6 14.1 0 25.7 3.8 34.6 11.6 8.8 7.6 13.3 19.1 13.3 34.4zm-61.2-2.5v23.9c0 4.1 1.2 7.2 3.6 9.5s5.6 3.3 9.6 3.3 7.2-1.2 9.6-3.3 3.6-5.4 3.6-9.6v-23.7c0-4.1-1.2-7.4-3.6-9.6s-5.6-3.3-9.6-3.3-7.2 1.2-9.6 3.3-3.6 5.4-3.6 9.5zm157.2 56.4c-8.4 7.7-19.8 11.5-34.4 11.5-14.3 0-25.9-3.8-34.4-11.5-8.4-7.7-12.7-19.5-12.7-35.8V83c0-1.2.3-2 1-3.1.6-.8 1.4-1.3 2.4-1.3h26.9c.9 0 1.8.5 2.4 1.3.6.8.9 1.8.9 3.1v62c0 4.4 1.2 7.6 3.6 9.7 2.4 2.2 5.6 3.3 9.6 3.3s7.2-1.2 9.6-3.3c2.4-2.3 3.6-5.6 3.6-9.7V83c0-1.2.3-2 .9-3.1.6-.8 1.4-1.3 2.4-1.3h26.9c1 0 1.8.5 2.4 1.3.6.8 1 1.8 1 3.1v60c.6 16.1-3.8 28.1-12.1 35.8zm126.2 6.3c.1.5.3 1 .3 1.8s-.3 1.4-.8 2c-.6.6-1.3 1-1.9 1h-29.3c-2.6 0-4.4-1.3-5.4-4l-11.4-31.5h-10.9v31.2c0 1.2-.3 2.3-1 3.1-.8.8-1.4 1.3-2.4 1.3h-27.9c-1 0-1.8-.5-2.4-1.3-.6-.8-1-1.9-1-3.1V83.3c0-1.2.3-2.3 1-3.1s1.4-1.3 2.4-1.3h50c11.8 0 21.1 3.6 28 10.4 6.9 6.8 10.2 16.4 10.2 28.2 0 14.3-4.5 24.8-13.6 31.4l16.1 36.2zm-59.4-76.7v16.8h16.1c1.9 0 3.3-.8 4.4-2.3 1-1.5 1.5-3.6 1.5-5.8 0-2.4-.5-4.4-1.4-6-1-1.8-2.4-2.6-4.5-2.6h-16.1v-.1zm134.3-29.5h24.1c1 0 1.8.5 2.4 1.3.6.8 1 1.9 1 3.1v102.6c0 1.2-.3 2.3-1 3.1-.8.8-1.4 1.3-2.4 1.3H1675c-2 0-3.8-1.2-5.1-3.3l-28.2-44.2V186c0 1.2-.3 2.2-1 3.1-.6.8-1.4 1.3-2.4 1.3h-24.1c-.9 0-1.8-.5-2.4-1.3-.6-.8-.9-1.9-.9-3.1V83.3c0-1.2.3-2.3.9-3.1.6-.8 1.4-1.3 2.4-1.3h20.7c2 0 3.7 1.2 5 3.2l28.2 47.9V83.3c0-1.2.3-2.3.9-3.1 1-1.1 1.8-1.3 2.7-1.3zm68.9 111.1h-24.3c-.8 0-1.4-.3-1.9-1-.5-.6-.8-1.3-.8-1.9 0-.6 0-1.2.1-1.4L1741.8 84c.8-3.6 2.7-5.2 5.8-5.2h35.8c3.1 0 5 1.8 5.8 5.2l28.2 101.6c.1.3.1.8.1 1.4 0 .6-.3 1.3-.8 1.9-.6.6-1.3 1-1.9 1h-24.3c-2.7 0-4.6-1.8-5.8-5.4l-3.2-11.3H1750l-3.2 11.3c-1.6 3.8-3.6 5.5-6.2 5.5zm33.9-47.5l-9.1-33.1-9.1 33.1h18.2zm98 14.8h44c1 0 1.8.5 2.4 1.3.6.8 1 1.9 1 3.1v24.1c0 1.2-.3 2.3-1 3.1s-1.4 1.3-2.4 1.3h-75.3c-1 0-1.8-.5-2.4-1.3-.6-.8-1-1.9-1-3.1V83.2c0-1.2.3-2.3 1-3.1s1.4-1.3 2.4-1.3h27.9c1 0 1.8.5 2.4 1.3.6.8 1 1.9 1 3.1v74.1z" fill="#231815"/></svg>