<svg xmlns="http://www.w3.org/2000/svg" viewBox="0 0 1000 1000"><path fill="none" d="M432.6 342.5v-37.9 37.9z"/><linearGradient id="a" gradientUnits="userSpaceOnUse" x1="144.42" y1="394.967" x2="497.991" y2="394.967" gradientTransform="matrix(1 .00812 -.00812 1 3.73 -2.583)"><stop offset=".408" stop-color="#132e87"/><stop offset="1" stop-color="#036eb7"/></linearGradient><path d="M146.6 703.5l-4.3 7.5 137.3-108.3-4.5 3.5 4.4-3.5v-.1l.5-61c.1-7.4 5.5-14.1 12.6-14.4 7.5-.3 13.6 6 13.6 13.7l-.3 40.7c0 .1.1.2.2.1l55.2-44v-.1l.5-64.1c.1-7.4 5.5-14.1 12.6-14.4 7.5-.3 13.6 6 13.6 13.7l-.4 44.1c0 .1.1.2.2.1l55.2-45.7v-.1l.9-114.2c.3-31.2 24.8-56.3 54.8-56.1.1 0 .1-.1.1-.1l1.8-221.6c0-.1-.2-.2-.2-.1L142.4 711l4.2-7.5z" fill="url(#a)"/><linearGradient id="b" gradientUnits="userSpaceOnUse" x1="497.988" y1="394.961" x2="851.54" y2="394.961" gradientTransform="matrix(1 .00812 -.00812 1 3.73 -2.583)"><stop offset=".235" stop-color="#e95513"/><stop offset=".552" stop-color="#f0891a"/><stop offset=".695" stop-color="#ef8115"/><stop offset=".921" stop-color="#eb6a06"/><stop offset="1" stop-color="#ea6000"/></linearGradient><path d="M845.3 709.1l4.1 7.6-135.5-110.6 4.4 3.6-4.3-3.5v-.1l.5-61c.1-7.4-5.2-14.2-12.4-14.6-7.5-.4-13.7 5.8-13.8 13.5l-.3 40.7c0 .1-.1.2-.2.1l-54.5-44.9v-.1l.5-64.1c.1-7.4-5.2-14.2-12.4-14.6-7.5-.4-13.7 5.8-13.8 13.5l-.4 44.1c0 .1-.1.2-.2.1l-54.5-46.6v-.1l.9-114.2c.3-31.2-23.9-56.7-53.9-57-.1 0-.1-.1-.1-.1l1.8-221.6c0-.1.2-.2.2-.1l348.1 637.6-4.2-7.6z" fill="url(#b)"/><path d="M34.1 773H89c.6 0 1.1.3 1.5 1 .4.7.6 1.4.6 2.4v20c0 .9-.2 1.7-.6 2.4-.4.7-.9 1-1.5 1H71.9v56.9c0 .9-.2 1.7-.6 2.4-.4.7-.9 1-1.5 1H53.4c-.6 0-1.1-.3-1.5-1-.4-.7-.6-1.5-.6-2.4v-56.9H34.1c-.6 0-1.1-.3-1.5-1-.4-.7-.6-1.4-.6-2.4v-20c0-.9.2-1.7.6-2.4.5-.7 1-1 1.5-1zm126.5 83c.1.3.2.8.2 1.4 0 .6-.2 1.1-.5 1.7-.3.5-.8.8-1.2.8h-18c-1.6 0-2.7-1-3.3-3.1l-7-24.6H124v24.3c0 .9-.2 1.7-.6 2.4-.4.7-.9 1-1.5 1h-17.2c-.6 0-1.1-.3-1.5-1-.4-.7-.6-1.5-.6-2.4v-80.2c0-.9.2-1.7.6-2.4.4-.7.9-1 1.5-1h30.9c7.3 0 13 2.7 17.2 8.1 4.2 5.4 6.4 12.7 6.4 22 0 11.3-2.8 19.4-8.3 24.5l9.7 28.5zM124 796.1v13.2h9.9c1.2 0 2.1-.6 2.7-1.8.6-1.2 1-2.7 1-4.5 0-1.8-.3-3.4-.9-4.8-.6-1.4-1.5-2-2.7-2h-10zm57.6 63.8h-15c-.5 0-.9-.3-1.2-.8-.3-.5-.5-1.1-.5-1.6s0-.9.1-1.1l17.3-79.3c.5-2.7 1.7-4.1 3.6-4.1H208c1.9 0 3.1 1.4 3.6 4.1l17.3 79.3c.1.3.1.6.1 1.1s-.2 1-.5 1.6c-.3.5-.8.8-1.2.8h-15c-1.7 0-2.9-1.4-3.6-4.2l-2-8.7h-19.4l-2 8.7c-.8 2.8-2 4.2-3.7 4.2zm20.9-37.1l-5.6-25.8-5.6 25.8h11.2zm74.3-49.8h16.8c.5 0 .9.3 1.2.8.3.5.5 1.1.5 1.5s0 .9-.1 1.2L277 855.8c-.6 2.7-1.8 4.1-3.6 4.1h-18.5c-1.8 0-2.9-1.2-3.5-3.7L233 776.6c-.1-.3-.1-.7-.1-1.2s.2-1 .5-1.5.8-.8 1.2-.8h16.8c1 0 1.7.4 2.3 1.3.6.9 1 1.8 1.2 2.8l9.1 47.5 9.1-47.5c.6-2.9 1.8-4.2 3.7-4.2zm48.9 62.7h31.7c.6 0 1.1.3 1.5 1 .4.7.6 1.4.6 2.4v17.5c0 .9-.2 1.7-.6 2.4-.4.7-.9 1-1.5 1h-50.2c-.6 0-1.1-.3-1.5-1-.4-.7-.6-1.5-.6-2.4v-80.2c0-.9.2-1.7.6-2.4.4-.7.9-1 1.5-1h49.4c.6 0 1.1.3 1.5 1 .4.7.6 1.4.6 2.4v17.5c0 .9-.2 1.7-.6 2.4-.4.7-.9 1-1.5 1h-30.9v7.8h26.5c.6 0 1.1.3 1.5 1 .4.7.6 1.4.6 2.4v16.1c0 .9-.2 1.7-.6 2.4-.4.7-.9 1-1.5 1h-26.5v7.7zm72.3-1.3h27.1c.6 0 1.1.3 1.5 1 .4.7.6 1.5.6 2.4v18.8c0 .9-.2 1.7-.6 2.4-.4.7-.9 1-1.5 1h-46.4c-.6 0-1.1-.3-1.5-1-.4-.7-.6-1.5-.6-2.4v-80.2c0-.9.2-1.7.6-2.4.4-.7.9-1 1.5-1h17.2c.6 0 1.1.3 1.5 1 .4.7.6 1.4.6 2.4v58zm163.5-58.1v46.8c0 12.4-2.6 21.7-7.9 27.8-5.3 6.1-12.4 9.1-21.2 9.1-4.8 0-9.2-1-13.1-2.9-3.9-1.9-7-4.4-9.4-7.6-4.8-6.5-7.2-13.5-7.2-20.9 0-.7.2-1.4.5-1.9s.8-.8 1.2-.8h18c1 0 1.6.9 2 2.7 1 4.8 3.5 7.2 7.6 7.2 2.5 0 4.5-.9 5.9-2.7s2.2-4.3 2.2-7.6v-27.1h-29c-.6 0-1.1-.3-1.5-1-.4-.7-.6-1.4-.6-2.4v-18.7c0-.9.2-1.7.6-2.4.4-.7.9-1 1.5-1h48.3c.6 0 1.1.3 1.5 1 .4.7.6 1.5.6 2.4zm69.8 32.7v14.8c0 8.3-1.3 15.3-4 20.8-2.7 5.6-6.1 9.5-10.4 11.9-4.3 2.3-9.3 3.5-15.2 3.5s-10.9-1.2-15.2-3.5c-4.3-2.3-7.8-6.3-10.4-11.9-2.7-5.6-4-12.6-4-21.1v-14.3c0-12.2 2.7-21.3 8.2-27.4 5.5-6.1 12.6-9.1 21.3-9.1 8.7 0 15.8 3 21.3 9.1 5.7 6.2 8.4 15.2 8.4 27.2zm-37.7-2v18.8c0 3.2.7 5.7 2.2 7.4 1.5 1.7 3.4 2.6 5.9 2.6 2.5 0 4.5-.9 5.9-2.6 1.5-1.8 2.2-4.2 2.2-7.5v-18.5c0-3.2-.7-5.7-2.2-7.5-1.5-1.8-3.4-2.6-5.9-2.6-2.5 0-4.5.9-5.9 2.6-1.4 1.7-2.2 4.1-2.2 7.3zm96.8 44c-5.2 6-12.3 9-21.2 9-8.9 0-16-3-21.2-9-5.2-6-7.8-15.3-7.8-27.9v-46.8c0-.9.2-1.7.6-2.3.4-.7.9-1 1.5-1H659c.6 0 1.1.3 1.5 1 .4.6.6 1.4.6 2.3v48.5c0 3.3.7 5.9 2.2 7.7 1.5 1.8 3.4 2.7 5.9 2.7 2.5 0 4.5-.9 5.9-2.7 1.5-1.8 2.2-4.3 2.2-7.7v-48.5c0-.9.2-1.7.6-2.3.4-.7.9-1 1.5-1H696c.6 0 1.1.3 1.5 1 .4.7.6 1.4.6 2.3v46.8c.2 12.7-2.4 22-7.7 27.9zm77.9 5c.1.3.2.8.2 1.4 0 .6-.2 1.1-.5 1.7-.3.5-.8.8-1.2.8h-18c-1.6 0-2.7-1-3.3-3.1l-7-24.6h-6.7v24.3c0 .9-.2 1.7-.6 2.4-.4.7-.9 1-1.5 1h-17.2c-.6 0-1.1-.3-1.5-1-.4-.7-.6-1.5-.6-2.4v-80.2c0-.9.2-1.7.6-2.4.4-.7.9-1 1.5-1h30.9c7.3 0 13 2.7 17.2 8.1 4.2 5.4 6.4 12.7 6.4 22 0 11.3-2.8 19.4-8.3 24.5l9.6 28.5zm-36.6-59.9v13.2h9.9c1.2 0 2.1-.6 2.7-1.8.6-1.2 1-2.7 1-4.5 0-1.8-.3-3.4-.9-4.8-.6-1.4-1.5-2-2.7-2h-10zm82.7-23.1h14.8c.6 0 1.1.3 1.5 1 .4.7.6 1.4.6 2.4v80.2c0 .9-.2 1.7-.6 2.4-.4.7-.9 1-1.5 1h-12.8c-1.3 0-2.3-.9-3.2-2.6l-17.3-34.5v33.8c0 .9-.2 1.7-.6 2.4-.4.7-.9 1-1.5 1H779c-.6 0-1.1-.3-1.5-1-.4-.7-.6-1.5-.6-2.4v-80.2c0-.9.2-1.7.6-2.4.4-.7.9-1 1.5-1h12.9c1.3 0 2.3.8 3.1 2.5l17.3 37.4v-36.5c0-.9.2-1.7.6-2.4.4-.8.9-1.1 1.5-1.1zm42.4 86.9h-15c-.5 0-.9-.3-1.2-.8-.3-.5-.5-1.1-.5-1.6s0-.9.1-1.1l17.3-79.3c.5-2.7 1.7-4.1 3.6-4.1h22.1c1.9 0 3.1 1.4 3.6 4.1l17.3 79.3c.1.3.1.6.1 1.1s-.2 1-.5 1.6c-.3.5-.8.8-1.2.8h-15c-1.7 0-2.9-1.4-3.6-4.2l-2-8.7h-19.4l-2 8.7c-.8 2.8-2 4.2-3.7 4.2zm20.9-37.1l-5.6-25.8-5.6 25.8h11.2zm60.5 11.6h27.1c.6 0 1.1.3 1.5 1 .4.7.6 1.5.6 2.4v18.8c0 .9-.2 1.7-.6 2.4-.4.7-.9 1-1.5 1h-46.4c-.6 0-1.1-.3-1.5-1-.4-.7-.6-1.5-.6-2.4v-80.2c0-.9.2-1.7.6-2.4.4-.7.9-1 1.5-1H936c.6 0 1.1.3 1.5 1 .4.7.6 1.4.6 2.4v58z" fill="#231815"/></svg>