<svg xmlns="http://www.w3.org/2000/svg" viewBox="0 0 1000 1000"><path fill="none" d="M432.6 342.5v-37.9 37.9z"/><linearGradient id="a" gradientUnits="userSpaceOnUse" x1="144.42" y1="394.967" x2="497.991" y2="394.967" gradientTransform="matrix(1 .00812 -.00812 1 3.73 -2.583)"><stop offset=".408" stop-color="#132e87"/><stop offset="1" stop-color="#036eb7"/></linearGradient><path d="M146.6 703.5l-4.3 7.5 137.3-108.3-4.5 3.5 4.4-3.5v-.1l.5-61c.1-7.4 5.5-14.1 12.6-14.4 7.5-.3 13.6 6 13.6 13.7l-.3 40.7c0 .1.1.2.2.1l55.2-44v-.1l.5-64.1c.1-7.4 5.5-14.1 12.6-14.4 7.5-.3 13.6 6 13.6 13.7l-.4 44.1c0 .1.1.2.2.1l55.2-45.7v-.1l.9-114.2c.3-31.2 24.8-56.3 54.8-56.1.1 0 .1-.1.1-.1l1.8-221.6c0-.1-.2-.2-.2-.1L142.4 711l4.2-7.5z" fill="url(#a)"/><linearGradient id="b" gradientUnits="userSpaceOnUse" x1="497.988" y1="394.961" x2="851.54" y2="394.961" gradientTransform="matrix(1 .00812 -.00812 1 3.73 -2.583)"><stop offset=".235" stop-color="#e95513"/><stop offset=".552" stop-color="#f0891a"/><stop offset=".695" stop-color="#ef8115"/><stop offset=".921" stop-color="#eb6a06"/><stop offset="1" stop-color="#ea6000"/></linearGradient><path d="M845.3 709.1l4.1 7.6-135.5-110.6 4.4 3.6-4.3-3.5v-.1l.5-61c.1-7.4-5.2-14.2-12.4-14.6-7.5-.4-13.7 5.8-13.8 13.5l-.3 40.7c0 .1-.1.2-.2.1l-54.5-44.9v-.1l.5-64.1c.1-7.4-5.2-14.2-12.4-14.6-7.5-.4-13.7 5.8-13.8 13.5l-.4 44.1c0 .1-.1.2-.2.1l-54.5-46.6v-.1l.9-114.2c.3-31.2-23.9-56.7-53.9-57-.1 0-.1-.1-.1-.1l1.8-221.6c0-.1.2-.2.2-.1l348.1 637.6-4.2-7.6z" fill="url(#b)"/><path d="M249.6 740.2h138c1.5 0 2.7.6 3.8 1.7 1.1 1.1 1.6 2.5 1.6 4.1v34.5c0 1.6-.5 2.9-1.6 4.1-1.1 1.1-2.3 1.7-3.8 1.7h-43v98c0 1.6-.5 2.9-1.6 4.1-1.1 1.1-2.3 1.7-3.8 1.7H298c-1.5 0-2.7-.6-3.8-1.7-1.1-1.1-1.6-2.5-1.6-4.1v-98h-43c-1.5 0-2.7-.6-3.8-1.7-1.1-1.1-1.6-2.5-1.6-4.1V746c0-1.6.5-2.9 1.6-4.1 1.1-1.1 2.3-1.7 3.8-1.7zM563 802.4v25.5c0 14.3-3.3 26.3-10 35.9-6.7 9.6-15.4 16.4-26.2 20.4-10.8 4-23.5 6-38.2 6-14.7 0-27.4-2-38.2-6-10.8-4-19.5-10.9-26.2-20.4-6.7-9.6-10-21.7-10-36.3v-24.6c0-21 6.9-36.7 20.7-47.2 13.8-10.4 31.7-15.6 53.7-15.6 22 0 39.9 5.2 53.7 15.6 13.8 10.4 20.7 26 20.7 46.7zm-94.8-3.5v32.4c0 5.5 1.8 9.8 5.5 12.7 3.7 3 8.6 4.5 14.9 4.5 6.3 0 11.2-1.5 14.9-4.6 3.7-3 5.5-7.3 5.5-12.9v-32c0-5.5-1.8-9.8-5.5-12.8s-8.6-4.6-14.9-4.6c-6.3 0-11.2 1.5-14.9 4.5-3.7 3.1-5.5 7.3-5.5 12.8zm136-58.7H679c18.9 0 33.9 4.9 45 14.8 11.1 9.8 16.6 22.5 16.6 37.9s-4.7 27.6-14 36.7c-9.3 9.1-25.2 13.6-47.6 13.6h-26.4v41.1c0 1.6-.5 2.9-1.6 4.1-1.1 1.1-2.3 1.7-3.8 1.7h-43c-1.5 0-2.7-.6-3.8-1.7-1.1-1.1-1.6-2.5-1.6-4.1V746c0-1.6.5-2.9 1.6-4.1 1.1-1.1 2.3-1.7 3.8-1.7zm48.6 39.8v23.5h25.4c3.1 0 5.6-1 7.5-3 1.9-2 2.9-4.8 2.9-8.3 0-3.6-.9-6.5-2.8-8.8-1.9-2.3-4.4-3.4-7.6-3.4h-25.4z"/></svg>