<svg xmlns="http://www.w3.org/2000/svg" width="47.295" height="47.295"><path d="M23.648 0A23.648 23.648 0 1047.3 23.648 23.65 23.65 0 0023.648 0zm10.8 18.438q.016.349.016.7a15.338 15.338 0 01-15.447 15.445 15.364 15.364 0 01-8.32-2.438 11.04 11.04 0 001.295.075 10.891 10.891 0 006.741-2.32 5.434 5.434 0 01-5.071-3.77 5.41 5.41 0 002.451-.093 5.429 5.429 0 01-4.355-5.32v-.069a5.39 5.39 0 002.458.679 5.432 5.432 0 01-1.68-7.246 15.41 15.41 0 0011.188 5.671 5.431 5.431 0 019.249-4.95 10.887 10.887 0 003.447-1.317 5.449 5.449 0 01-2.387 3 10.825 10.825 0 003.117-.855 11.03 11.03 0 01-2.705 2.808zm0 0" fill="#fff"/></svg>